#!OML:ASF F:\VICON\USERDATA\INSTALL\rory3\rory3.ASF
:FULLY-SPECIFIED
:DEGREES
685
root -0.908507 14.9278 -20.7802 -181.121 -24.8999 -170.316
lowerback -4.64065 3.64183 -9.49995
upperback 0.131855 5.32962 -0.674324
thorax 1.93927 2.53887 4.89619
lowerneck -19.4976 -6.25017 -2.97008
upperneck 37.6909 -15.5606 8.55027
head 18.5865 -6.48901 0.781793
rclavicle 1.39149e-014 3.49861e-014
rhumerus -141.484 -37.7315 105.177
rradius 12.943
rwrist 95.9475
rhand -38.4341 22.9348
rfingers 7.12502
rthumb -11.458 -6.73213
lclavicle 1.39149e-014 3.49861e-014
lhumerus -72.0728 -0.602846 69.4536
lradius 14.3521
lwrist -41.4314
lhand -1.0508 31.6379
lfingers 7.12502
lthumb 24.5835 60.0794
rfemur -34.9613 -4.78088 382.073
rtibia 83.2004
rfoot -17.1341 -25.3648
rtoes 2.55202
lfemur -48.9145 -14.6687 -19.783
ltibia 64.8026
lfoot -21.8269 24.1758
ltoes 13.5684
686
root -0.907974 14.9753 -20.9173 -183.616 -25.0493 -167.582
lowerback -3.73541 3.49645 -7.82545
upperback 0.84034 5.01257 0.686498
thorax 2.23696 2.3828 5.34
lowerneck -19.3328 -6.18292 -3.22208
upperneck 37.638 -15.0169 7.99212
head 18.3901 -6.3726 0.711579
rclavicle -9.06458e-014 5.40694e-014
rhumerus -145.906 -35.7055 105.878
rradius 12.044
rwrist 96.5377
rhand -37.4308 28.5287
rfingers 7.12502
rthumb -10.4903 -1.18954
lclavicle -9.06458e-014 5.40694e-014
lhumerus -67.9538 3.74423 67.0498
lradius 12.9476
lwrist -46.3528
lhand -4.05734 30.0479
lfingers 7.12502
lthumb 21.6989 58.8518
rfemur -37.9247 -1.77232 383.393
rtibia 81.6243
rfoot -21.6107 -28.6656
rtoes 7.27523
lfemur -47.3592 -13.2545 -17.4172
ltibia 65.4589
lfoot -22.16 22.3833
ltoes 13.1542
687
root -0.943227 15.0065 -21.0162 -185.284 -25.7171 -166.078
lowerback -2.22115 3.32237 -6.10728
upperback 1.04461 4.59613 1.30939
thorax 1.73744 2.21217 4.91848
lowerneck -19.1057 -6.17478 -3.57434
upperneck 37.779 -14.6672 7.51827
head 18.3387 -6.34831 0.648507
rclavicle -3.43897e-014 9.54166e-015
rhumerus -145.086 -41.517 98.5009
rradius 10.5962
rwrist 87.2602
rhand -37.0701 31.0183
rfingers 7.12502
rthumb -10.1422 1.28276
lclavicle -3.43897e-014 9.54166e-015
lhumerus -64.2432 7.83534 64.5854
lradius 11.9495
lwrist -50.9624
lhand -4.51931 28.0284
lfingers 7.12502
lthumb 21.2552 56.8829
rfemur -41.1316 -0.204656 382.483
rtibia 79.4274
rfoot -24.5669 -30.9842
rtoes 13.6932
lfemur -46.0229 -12.632 -16.462
ltibia 65.9936
lfoot -22.7912 20.7117
ltoes 14.766
688
root -0.963613 15.0096 -21.116 -187.147 -26.0727 -164.248
lowerback -0.378597 3.17945 -3.88185
upperback 1.05147 4.2501 1.81935
thorax 0.872579 2.08162 4.0772
lowerneck -18.6913 -6.06636 -3.66929
upperneck 37.8981 -14.292 7.05445
head 18.2037 -6.29784 0.558156
rclavicle 6.2816e-014 -2.22639e-014
rhumerus -132.011 -56.6643 75.9678
rradius 9.2532
rwrist 65.8878
rhand -36.3377 31.7333
rfingers 7.12502
rthumb -9.43568 1.96447
lclavicle 6.2816e-014 -2.22639e-014
lhumerus -61.1117 12.2037 61.5385
lradius 10.863
lwrist -58.0536
lhand -5.86434 28.5662
lfingers 7.12502
lthumb 19.9628 57.5608
rfemur -43.8424 1.38158 381.729
rtibia 76.1887
rfoot -28.0465 -33.2316
rtoes 16.4027
lfemur -44.997 -11.8642 -15.0466
ltibia 66.8567
lfoot -22.8284 19.56
ltoes 14.0583
689
root -0.981699 15.0661 -21.2081 -189.642 -25.9283 -161.369
lowerback 1.52349 3.02302 -0.743925
upperback 1.14856 3.9687 2.58115
thorax 0.0910559 1.95165 3.00038
lowerneck -18.3203 -5.80332 -3.29375
upperneck 38.041 -13.7641 6.37306
head 18.0125 -6.14901 0.322225
rclavicle -1.83876e-014 -6.04305e-014
rhumerus -100.597 -66.9825 35.8312
rradius 8.9548
rwrist 45.6917
rhand -36.0923 31.2722
rfingers 7.12502
rthumb -9.19891 1.49283
lclavicle -1.83876e-014 -6.04305e-014
lhumerus -57.4659 18.1275 58.7904
lradius 10.0558
lwrist -60.761
lhand -4.81755 28.716
lfingers 7.12502
lthumb 20.9687 57.6026
rfemur -45.998 3.45611 381.752
rtibia 72.301
rfoot -32.16 -34.5523
rtoes 21.184
lfemur -43.5989 -10.6943 -12.4326
ltibia 67.0924
lfoot -21.9435 18.7722
ltoes 11.1419
690
root -0.922783 15.1647 -21.4032 -198.047 -22.1612 -153.424
lowerback 6.72821 3.38034 6.03913
upperback 2.33487 4.60073 5.28191
thorax -1.29364 2.12015 1.73774
lowerneck -18.0808 -5.41798 -2.64866
upperneck 38.452 -13.2236 5.61863
head 17.9875 -5.97146 -0.00645633
rclavicle -8.7664e-014 -2.54444e-014
rhumerus -55.6914 -64.1499 -17.1349
rradius 9.6951
rwrist 26.3968
rhand -35.7087 32.2885
rfingers 7.12502
rthumb -8.82873 2.49316
lclavicle -8.7664e-014 -2.54444e-014
lhumerus -50.5744 11.4903 70.9737
lradius 11.577
lwrist -44.5444
lhand -1.69838 32.6458
lfingers 7.12502
lthumb 23.9627 61.1703
rfemur -42.8953 8.61438 388.548
rtibia 67.0291
rfoot -38.26 -37.7959
rtoes 23.3137
lfemur -37.4428 -7.29284 -3.62874
ltibia 67.3379
lfoot -21.9844 15.7779
ltoes 10.8366
691
root -1.03579 15.2015 -21.4063 -192.18 -27.3167 -161.642
lowerback 5.33127 2.19984 0.0176112
upperback 1.24883 2.90095 2.38143
thorax -1.8241 1.41639 2.24019
lowerneck -17.9755 -5.05651 -2.0346
upperneck 38.9095 -12.7253 4.89244
head 18.0465 -5.80306 -0.338308
rclavicle -1.19271e-014 0
rhumerus -31.6735 -50.3606 -48.4672
rradius 11.2367
rwrist 8.69207
rhand -34.4758 35.6243
rfingers 7.12502
rthumb -7.6388 5.78228
lclavicle -1.19271e-014 0
lhumerus -45.6916 9.48203 74.7593
lradius 12.0999
lwrist -39.4921
lhand -1.5553 31.9775
lfingers 7.12502
lthumb 24.0999 60.484
rfemur -49.9769 3.91238 374.969
rtibia 63.7935
rfoot -37.2891 -37.0992
rtoes 25.9101
lfemur -39.0381 -10.3878 -13.8096
ltibia 65.7216
lfoot -22.2026 17.8983
ltoes 11.0427
692
root -1.08177 15.3011 -21.4941 -194.464 -27.2753 -159.719
lowerback 6.65656 1.93298 2.44489
upperback 1.66002 2.66237 2.91098
thorax -2.042 1.25574 1.40892
lowerneck -18.1936 -4.83569 -1.99794
upperneck 39.1843 -12.3109 4.58322
head 18.1972 -5.66164 -0.412367
rclavicle 1.43125e-014 4.92986e-014
rhumerus -22.7769 -40.0117 -61.8529
rradius 12.6974
rwrist 0.166821
rhand -33.8695 39.4623
rfingers 7.12502
rthumb -7.05361 9.59984
lclavicle 1.43125e-014 4.92986e-014
lhumerus -40.182 6.60765 78.5475
lradius 12.9454
lwrist -36.1433
lhand -1.23113 29.2472
lfingers 7.12502
lthumb 24.4107 57.7121
rfemur -51.0763 4.76436 373.535
rtibia 58.9016
rfoot -40.4273 -36.0798
rtoes 26.7058
lfemur -36.4252 -9.39991 -12.4324
ltibia 64.5508
lfoot -22.0795 17.8364
ltoes 9.31022
693
root -1.08567 15.3812 -21.5562 -196.573 -28.4808 -157.83
lowerback 8.06086 1.39465 4.30211
upperback 1.91517 2.09384 3.39118
thorax -2.50132 0.928622 0.885815
lowerneck -17.9884 -4.88374 -2.09691
upperneck 39.0617 -12.2664 4.49684
head 18.0657 -5.67382 -0.409388
rclavicle -5.81445e-014 -8.42847e-014
rhumerus -17.1317 -30.0119 -70.8552
rradius 14.5898
rwrist -6.4053
rhand -33.6093 41.6974
rfingers 7.12502
rthumb -6.80237 11.8267
lclavicle -5.81445e-014 -8.42847e-014
lhumerus -34.4992 1.2512 82.6503
lradius 14.3753
lwrist -31.5759
lhand 1.54034 28.7943
lfingers 7.12502
lthumb 27.0649 56.8746
rfemur -52.7329 4.78616 371.112
rtibia 54.7988
rfoot -41.9393 -36.886
rtoes 31.6123
lfemur -34.5678 -9.12906 -11.3846
ltibia 63.0844
lfoot -20.3369 18.4067
ltoes 3.42202
694
root -1.11115 15.4616 -21.6281 -197.891 -29.612 -156.947
lowerback 8.52834 1.11552 5.45602
upperback 2.1162 1.81209 3.46841
thorax -2.51863 0.769499 0.34446
lowerneck -17.7286 -4.99434 -2.23341
upperneck 39.027 -12.4775 4.67747
head 18.0232 -5.76502 -0.33703
rclavicle 6.59965e-014 5.24792e-014
rhumerus -13.3725 -21.39 -77.2388
rradius 17.0455
rwrist -11.0634
rhand -32.967 39.2464
rfingers 7.12502
rthumb -6.18239 9.35659
lclavicle 6.59965e-014 5.24792e-014
lhumerus -28.9395 -5.76025 85.6693
lradius 15.9689
lwrist -26.9693
lhand 1.96509 27.3727
lfingers 7.12502
lthumb 27.4712 55.3891
rfemur -54.088 5.27704 366.981
rtibia 50.013
rfoot -45.4982 -34.2705
rtoes 34.4596
lfemur -32.6876 -9.00929 -11.087
ltibia 61.7312
lfoot -20.7208 17.1507
ltoes 5.57476
695
root -1.12043 15.5109 -21.7329 -199.655 -30.373 -155.132
lowerback 8.74974 0.907723 7.06355
upperback 2.23698 1.64396 3.88559
thorax -2.47966 0.656147 -0.099
lowerneck -17.3062 -5.02686 -2.43707
upperneck 39.0826 -12.6352 4.94869
head 18.0052 -5.84798 -0.198723
rclavicle -1.10425e-013 -6.36111e-015
rhumerus -10.2336 -16.7301 -81.371
rradius 18.7623
rwrist -9.09718
rhand -32.9599 42.2095
rfingers 7.12502
rthumb -6.17554 12.3196
lclavicle -1.10425e-013 -6.36111e-015
lhumerus -23.6607 -13.9123 87.6118
lradius 18.3452
lwrist -22.5162
lhand 3.80546 28.0603
lfingers 7.12502
lthumb 29.23 55.7842
rfemur -55.4194 6.90317 362.989
rtibia 45.4536
rfoot -47.4397 -35.7897
rtoes 33.6747
lfemur -31.1874 -8.8043 -9.61573
ltibia 60.6353
lfoot -20.5061 15.9966
ltoes 5.56439
696
root -1.15002 15.6327 -21.7353 -200.285 -30.0978 -154.149
lowerback 8.62717 1.02482 8.39822
upperback 2.09279 1.88608 4.26277
thorax -2.51118 0.748632 -0.466096
lowerneck -17.1212 -4.68782 -3.15275
upperneck 39.5198 -12.2699 5.51669
head 18.3163 -5.7566 0.249541
rclavicle -1.76918e-014 -4.77083e-015
rhumerus -7.20854 -10.3912 -84.6933
rradius 21.0917
rwrist -9.03334
rhand -31.931 39.8054
rfingers 7.12502
rthumb -5.18213 9.88873
lclavicle -1.76918e-014 -4.77083e-015
lhumerus -18.1669 -19.5471 87.4603
lradius 20.6172
lwrist -20.8632
lhand 3.9724 26.7262
lfingers 7.12502
lthumb 29.3893 54.4223
rfemur -58.3989 8.66809 358.231
rtibia 41.7933
rfoot -41.9321 -38.8968
rtoes 31.0791
lfemur -30.0903 -7.74528 -8.65248
ltibia 59.0864
lfoot -19.8354 15.2675
ltoes 5.28179
697
root -1.1672 15.7286 -21.7886 -201.091 -30.8102 -153.003
lowerback 7.77902 0.939535 9.05873
upperback 2.1446 1.68441 4.79698
thorax -1.98926 0.644667 -0.2376
lowerneck -16.6241 -4.4622 -3.57568
upperneck 39.813 -12.1027 5.89923
head 18.4258 -5.746 0.543481
rclavicle -2.55935e-014 4.92986e-014
rhumerus -4.06867 -3.20207 -87.0642
rradius 23.5206
rwrist -11.241
rhand -31.3117 39.1538
rfingers 7.12502
rthumb -4.58411 9.22336
lclavicle -2.55935e-014 4.92986e-014
lhumerus -11.9672 -24.332 86.3853
lradius 24.2117
lwrist -18.2833
lhand 6.12648 29.7524
lfingers 7.12502
lthumb 31.4438 57.0683
rfemur -61.4188 14.932 347.816
rtibia 38.5959
rfoot -50.3444 -39.457
rtoes 36.987
lfemur -29.3241 -7.46365 -7.77136
ltibia 57.9486
lfoot -19.3191 14.2532
ltoes 5.29964
698
root -1.24121 15.7512 -21.7934 -197.915 -33.922 -157.149
lowerback 6.16051 0.800008 6.19735
upperback 1.82946 1.28869 3.66714
thorax -1.50155 0.536901 0.219351
lowerneck -16.3745 -4.31114 -3.85088
upperneck 39.9786 -11.8228 5.94695
head 18.4608 -5.67684 0.683295
rclavicle 6.53008e-014 4.13472e-014
rhumerus -0.434056 3.33501 -87.9482
rradius 24.9319
rwrist -11.277
rhand -30.8806 40.2289
rfingers 7.12502
rthumb -4.16784 10.29
lclavicle 6.53008e-014 4.13472e-014
lhumerus -5.15663 -28.8251 84.0468
lradius 26.7376
lwrist -18.0057
lhand 5.34556 28.4616
lfingers 7.12502
lthumb 30.6995 55.9199
rfemur -63.1368 -6.9019 353.453
rtibia 37.1078
rfoot -27.1519 -19.3268
rtoes 33.8473
lfemur -29.7087 -8.97545 -13.0382
ltibia 56.4987
lfoot -18.7274 14.9309
ltoes 5.74921
699
root -1.16626 15.8614 -21.9651 -201.539 -33.3162 -152.372
lowerback 5.31305 1.03053 7.94451
upperback 2.37412 1.38075 5.7283
thorax -0.448428 0.525299 1.4037
lowerneck -16.4313 -4.11368 -4.02523
upperneck 39.8861 -11.0641 5.47529
head 18.3124 -5.42385 0.669288
rclavicle 6.75868e-015 3.97569e-014
rhumerus 3.42144 9.04953 -87.8782
rradius 26.8878
rwrist -10.4786
rhand -29.8762 40.9894
rfingers 7.12502
rthumb -3.19794 11.0336
lclavicle 6.75868e-015 3.97569e-014
lhumerus 2.18952 -32.4929 80.6207
lradius 29.3802
lwrist -17.1152
lhand 4.61051 27.8407
lfingers 7.12502
lthumb 29.9984 55.4283
rfemur -68.6267 -23.6571 370.23
rtibia 36.0999
rfoot -9.70368 7.86802
rtoes 55.3325
lfemur -28.4785 -7.56694 -7.76126
ltibia 55.759
lfoot -18.3074 12.2962
ltoes 6.10476
